<svg xmlns="http://www.w3.org/2000/svg" xmlns:xlink="http://www.w3.org/1999/xlink" width="310" height="310" viewBox="89 89 310 310">
<defs>
<clipPath id="clip-0">
<path clip-rule="nonzero" d="M 167 161 L 320 161 L 320 327 L 167 327 Z M 167 161 "/>
</clipPath>
<clipPath id="clip-1">
<path clip-rule="evenodd" d="M 249.675781 303.363281 C 249.675781 293.90625 249.675781 284.453125 249.675781 274.996094 C 252.34375 273.164062 255.105469 271.425781 257.917969 269.765625 C 257.917969 281.660156 257.917969 293.554688 257.917969 305.449219 C 255.191406 305.453125 252.464844 305.441406 249.734375 305.394531 C 241.890625 305.242188 233.917969 304.859375 226.113281 303.640625 C 225.390625 307.269531 224.960938 311.195312 224.804688 315.484375 C 224.824219 318.320312 224.824219 321.152344 224.824219 323.988281 C 234.867188 323.988281 244.910156 323.988281 254.953125 323.988281 C 258.8125 323.988281 262.316406 323.652344 266.140625 322.996094 C 269.765625 322.375 273.382812 321.464844 277.03125 320.082031 C 295.375 313.132812 307.542969 300.941406 307.542969 287.058594 C 307.542969 273.359375 295.6875 261.300781 277.738281 254.308594 C 275.921875 255.269531 274.097656 256.203125 272.296875 257.117188 C 264.117188 261.28125 255.785156 265.898438 248.347656 271.300781 C 236.429688 279.960938 229.566406 288.976562 226.566406 301.570312 C 232.730469 302.792969 239.0625 303.246094 245.472656 303.363281 Z M 222.179688 302.945312 C 216.242188 301.777344 210.4375 300.058594 204.898438 297.503906 C 192.859375 291.953125 179.597656 281.203125 179.621094 266.59375 C 179.644531 252.25 191.386719 242.953125 204.609375 235.472656 C 182.507812 229.148438 167.253906 215.722656 167.253906 200.179688 C 167.253906 169.101562 204.523438 161.277344 229.164062 161.191406 L 266.167969 161.191406 C 266.167969 164.59375 266.253906 168.105469 266.15625 171.496094 C 266.007812 176.167969 265.558594 180.410156 264.820312 184.292969 C 270.753906 185.460938 276.558594 187.183594 282.101562 189.734375 C 294.140625 195.285156 307.398438 206.035156 307.375 220.648438 C 307.351562 234.992188 295.609375 244.285156 282.390625 251.765625 C 304.492188 258.089844 319.746094 271.515625 319.746094 287.058594 C 319.746094 318.140625 282.476562 325.960938 257.832031 326.046875 L 220.832031 326.046875 C 220.832031 322.648438 220.742188 319.132812 220.839844 315.746094 C 220.988281 311.074219 221.441406 306.828125 222.179688 302.945312 Z M 264.347656 186.5625 C 263.09375 192.066406 261.222656 196.8125 258.785156 201.011719 C 255.761719 206.21875 251.824219 210.566406 247.238281 214.519531 C 244.222656 217.117188 240.914062 219.566406 237.320312 221.933594 L 237.320312 269.246094 C 234.332031 271.769531 231.53125 274.503906 229.078125 277.5625 L 229.078125 226.957031 C 226.363281 228.503906 223.589844 230.015625 220.78125 231.492188 C 215.234375 234.402344 209.621094 237.273438 204.546875 240.683594 C 194.753906 247.265625 187.894531 255.539062 187.875 266.59375 C 187.851562 279.445312 198.085938 289.152344 208.511719 295.039062 C 213.074219 297.617188 217.804688 299.421875 222.652344 300.675781 C 223.90625 295.171875 225.773438 290.425781 228.210938 286.226562 C 231.234375 281.019531 235.171875 276.671875 239.757812 272.71875 C 242.773438 270.121094 246.082031 267.671875 249.675781 265.308594 L 249.675781 217.996094 C 252.667969 215.472656 255.464844 212.734375 257.917969 209.679688 L 257.917969 260.28125 C 260.632812 258.734375 263.40625 257.222656 266.21875 255.746094 C 271.761719 252.835938 277.378906 249.964844 282.453125 246.554688 C 292.246094 239.972656 299.101562 231.699219 299.121094 220.648438 C 299.144531 207.792969 288.914062 198.085938 278.488281 192.199219 C 273.925781 189.621094 269.195312 187.816406 264.347656 186.5625 Z M 237.320312 183.875 C 237.320312 193.332031 237.320312 202.789062 237.320312 212.242188 C 234.65625 214.074219 231.890625 215.8125 229.078125 217.472656 C 229.078125 205.578125 229.078125 193.683594 229.078125 181.789062 C 231.808594 181.789062 234.535156 181.796875 237.265625 181.84375 C 245.105469 181.996094 253.082031 182.378906 260.882812 183.601562 C 261.609375 179.96875 262.039062 176.042969 262.195312 171.753906 C 262.171875 168.917969 262.171875 166.089844 262.175781 163.25 C 252.132812 163.25 242.089844 163.25 232.046875 163.25 C 228.183594 163.25 224.683594 163.585938 220.855469 164.242188 C 217.234375 164.863281 213.613281 165.773438 209.96875 167.15625 C 191.621094 174.109375 179.457031 186.300781 179.457031 200.179688 C 179.457031 213.878906 191.3125 225.9375 209.261719 232.933594 C 211.078125 231.972656 212.898438 231.035156 214.699219 230.121094 C 222.878906 225.960938 231.214844 221.34375 238.652344 215.9375 C 250.566406 207.277344 257.429688 198.261719 260.433594 185.671875 C 254.269531 184.445312 247.933594 183.992188 241.523438 183.875 Z M 237.320312 183.875 "/>
</clipPath>
<linearGradient id="linear-pattern-0" gradientUnits="userSpaceOnUse" x1="158.067481" y1="254.933016" x2="329.369583" y2="232.497369" gradientTransform="matrix(0.999097, 0, 0, -0.999097, 0, 487.118598)">
<stop offset="0" stop-color="rgb(67.843628%, 58.824158%, 37.254333%)" stop-opacity="1"/>
<stop offset="0.12403" stop-color="rgb(67.843628%, 58.824158%, 37.254333%)" stop-opacity="1"/>
<stop offset="0.25" stop-color="rgb(67.843628%, 58.824158%, 37.254333%)" stop-opacity="1"/>
<stop offset="0.28125" stop-color="rgb(67.843628%, 58.824158%, 37.254333%)" stop-opacity="1"/>
<stop offset="0.296875" stop-color="rgb(67.843628%, 58.824158%, 37.254333%)" stop-opacity="1"/>
<stop offset="0.300781" stop-color="rgb(68.235779%, 59.216309%, 37.646484%)" stop-opacity="1"/>
<stop offset="0.304688" stop-color="rgb(68.235779%, 59.216309%, 38.038635%)" stop-opacity="1"/>
<stop offset="0.308594" stop-color="rgb(68.62793%, 59.608459%, 38.430786%)" stop-opacity="1"/>
<stop offset="0.3125" stop-color="rgb(68.62793%, 60.00061%, 38.822937%)" stop-opacity="1"/>
<stop offset="0.316406" stop-color="rgb(69.020081%, 60.392761%, 39.215088%)" stop-opacity="1"/>
<stop offset="0.320312" stop-color="rgb(69.412231%, 60.392761%, 39.215088%)" stop-opacity="1"/>
<stop offset="0.324219" stop-color="rgb(69.412231%, 60.784912%, 39.607239%)" stop-opacity="1"/>
<stop offset="0.328125" stop-color="rgb(69.804382%, 61.177063%, 39.99939%)" stop-opacity="1"/>
<stop offset="0.332031" stop-color="rgb(70.196533%, 61.177063%, 40.391541%)" stop-opacity="1"/>
<stop offset="0.335937" stop-color="rgb(70.196533%, 61.569214%, 40.783691%)" stop-opacity="1"/>
<stop offset="0.339844" stop-color="rgb(70.588684%, 61.961365%, 41.175842%)" stop-opacity="1"/>
<stop offset="0.34375" stop-color="rgb(70.588684%, 62.353516%, 41.567993%)" stop-opacity="1"/>
<stop offset="0.347656" stop-color="rgb(70.980835%, 62.353516%, 41.960144%)" stop-opacity="1"/>
<stop offset="0.351562" stop-color="rgb(71.372986%, 62.745667%, 42.352295%)" stop-opacity="1"/>
<stop offset="0.355469" stop-color="rgb(71.372986%, 63.137817%, 42.352295%)" stop-opacity="1"/>
<stop offset="0.359375" stop-color="rgb(71.765137%, 63.137817%, 42.744446%)" stop-opacity="1"/>
<stop offset="0.363281" stop-color="rgb(72.157288%, 63.529968%, 43.136597%)" stop-opacity="1"/>
<stop offset="0.367188" stop-color="rgb(72.157288%, 63.922119%, 43.528748%)" stop-opacity="1"/>
<stop offset="0.371094" stop-color="rgb(72.549438%, 64.31427%, 43.920898%)" stop-opacity="1"/>
<stop offset="0.375" stop-color="rgb(72.941589%, 64.31427%, 44.313049%)" stop-opacity="1"/>
<stop offset="0.378906" stop-color="rgb(72.941589%, 64.706421%, 44.7052%)" stop-opacity="1"/>
<stop offset="0.382813" stop-color="rgb(73.33374%, 65.098572%, 45.097351%)" stop-opacity="1"/>
<stop offset="0.386719" stop-color="rgb(73.33374%, 65.098572%, 45.097351%)" stop-opacity="1"/>
<stop offset="0.390625" stop-color="rgb(73.725891%, 65.490723%, 45.489502%)" stop-opacity="1"/>
<stop offset="0.394531" stop-color="rgb(74.118042%, 65.882874%, 45.881653%)" stop-opacity="1"/>
<stop offset="0.398437" stop-color="rgb(74.118042%, 66.275024%, 46.273804%)" stop-opacity="1"/>
<stop offset="0.402344" stop-color="rgb(74.510193%, 66.275024%, 46.665955%)" stop-opacity="1"/>
<stop offset="0.40625" stop-color="rgb(74.902344%, 66.667175%, 47.058105%)" stop-opacity="1"/>
<stop offset="0.410156" stop-color="rgb(74.902344%, 67.059326%, 47.450256%)" stop-opacity="1"/>
<stop offset="0.414062" stop-color="rgb(75.294495%, 67.059326%, 47.842407%)" stop-opacity="1"/>
<stop offset="0.417969" stop-color="rgb(75.294495%, 67.451477%, 48.234558%)" stop-opacity="1"/>
<stop offset="0.421875" stop-color="rgb(75.686646%, 67.843628%, 48.234558%)" stop-opacity="1"/>
<stop offset="0.425781" stop-color="rgb(76.078796%, 67.843628%, 48.626709%)" stop-opacity="1"/>
<stop offset="0.429688" stop-color="rgb(76.078796%, 68.235779%, 49.01886%)" stop-opacity="1"/>
<stop offset="0.433594" stop-color="rgb(76.470947%, 68.62793%, 49.411011%)" stop-opacity="1"/>
<stop offset="0.4375" stop-color="rgb(76.863098%, 69.020081%, 49.803162%)" stop-opacity="1"/>
<stop offset="0.441406" stop-color="rgb(76.863098%, 69.020081%, 50.196838%)" stop-opacity="1"/>
<stop offset="0.445313" stop-color="rgb(77.255249%, 69.412231%, 50.588989%)" stop-opacity="1"/>
<stop offset="0.449219" stop-color="rgb(77.255249%, 69.804382%, 50.98114%)" stop-opacity="1"/>
<stop offset="0.453125" stop-color="rgb(77.6474%, 69.804382%, 50.98114%)" stop-opacity="1"/>
<stop offset="0.457031" stop-color="rgb(78.039551%, 70.196533%, 51.373291%)" stop-opacity="1"/>
<stop offset="0.460938" stop-color="rgb(78.039551%, 70.588684%, 51.765442%)" stop-opacity="1"/>
<stop offset="0.464844" stop-color="rgb(78.431702%, 70.980835%, 52.157593%)" stop-opacity="1"/>
<stop offset="0.46875" stop-color="rgb(78.823853%, 70.980835%, 52.549744%)" stop-opacity="1"/>
<stop offset="0.472656" stop-color="rgb(78.823853%, 71.372986%, 52.941895%)" stop-opacity="1"/>
<stop offset="0.476562" stop-color="rgb(79.216003%, 71.765137%, 53.334045%)" stop-opacity="1"/>
<stop offset="0.480469" stop-color="rgb(79.216003%, 71.765137%, 53.726196%)" stop-opacity="1"/>
<stop offset="0.484375" stop-color="rgb(79.608154%, 72.157288%, 54.118347%)" stop-opacity="1"/>
<stop offset="0.488281" stop-color="rgb(80.000305%, 72.549438%, 54.118347%)" stop-opacity="1"/>
<stop offset="0.492188" stop-color="rgb(80.000305%, 72.941589%, 54.510498%)" stop-opacity="1"/>
<stop offset="0.496094" stop-color="rgb(80.392456%, 72.941589%, 54.902649%)" stop-opacity="1"/>
<stop offset="0.5" stop-color="rgb(80.784607%, 73.33374%, 55.2948%)" stop-opacity="1"/>
<stop offset="0.503906" stop-color="rgb(80.784607%, 73.725891%, 55.686951%)" stop-opacity="1"/>
<stop offset="0.507812" stop-color="rgb(81.176758%, 73.725891%, 56.079102%)" stop-opacity="1"/>
<stop offset="0.511719" stop-color="rgb(81.176758%, 74.118042%, 56.471252%)" stop-opacity="1"/>
<stop offset="0.515625" stop-color="rgb(81.568909%, 74.510193%, 56.863403%)" stop-opacity="1"/>
<stop offset="0.519531" stop-color="rgb(81.96106%, 74.902344%, 56.863403%)" stop-opacity="1"/>
<stop offset="0.523438" stop-color="rgb(81.96106%, 74.902344%, 57.255554%)" stop-opacity="1"/>
<stop offset="0.527344" stop-color="rgb(82.35321%, 75.294495%, 57.647705%)" stop-opacity="1"/>
<stop offset="0.53125" stop-color="rgb(82.745361%, 75.686646%, 58.039856%)" stop-opacity="1"/>
<stop offset="0.535156" stop-color="rgb(82.745361%, 75.686646%, 58.432007%)" stop-opacity="1"/>
<stop offset="0.539062" stop-color="rgb(83.137512%, 76.078796%, 58.824158%)" stop-opacity="1"/>
<stop offset="0.542969" stop-color="rgb(83.529663%, 76.470947%, 59.216309%)" stop-opacity="1"/>
<stop offset="0.546875" stop-color="rgb(83.529663%, 76.863098%, 59.608459%)" stop-opacity="1"/>
<stop offset="0.550781" stop-color="rgb(83.921814%, 76.863098%, 60.00061%)" stop-opacity="1"/>
<stop offset="0.554688" stop-color="rgb(83.921814%, 77.255249%, 60.00061%)" stop-opacity="1"/>
<stop offset="0.558594" stop-color="rgb(84.313965%, 77.6474%, 60.392761%)" stop-opacity="1"/>
<stop offset="0.5625" stop-color="rgb(84.706116%, 77.6474%, 60.784912%)" stop-opacity="1"/>
<stop offset="0.566406" stop-color="rgb(84.706116%, 78.039551%, 61.177063%)" stop-opacity="1"/>
<stop offset="0.570312" stop-color="rgb(85.098267%, 78.431702%, 61.569214%)" stop-opacity="1"/>
<stop offset="0.574219" stop-color="rgb(85.490417%, 78.823853%, 62.353516%)" stop-opacity="1"/>
<stop offset="0.578125" stop-color="rgb(85.882568%, 79.608154%, 63.529968%)" stop-opacity="1"/>
<stop offset="0.582031" stop-color="rgb(86.66687%, 80.000305%, 64.31427%)" stop-opacity="1"/>
<stop offset="0.585938" stop-color="rgb(87.059021%, 80.784607%, 65.490723%)" stop-opacity="1"/>
<stop offset="0.589844" stop-color="rgb(87.451172%, 81.568909%, 66.275024%)" stop-opacity="1"/>
<stop offset="0.59375" stop-color="rgb(87.843323%, 81.96106%, 67.451477%)" stop-opacity="1"/>
<stop offset="0.597656" stop-color="rgb(88.627625%, 82.745361%, 68.235779%)" stop-opacity="1"/>
<stop offset="0.601562" stop-color="rgb(89.019775%, 83.137512%, 69.412231%)" stop-opacity="1"/>
<stop offset="0.605469" stop-color="rgb(89.411926%, 83.921814%, 70.196533%)" stop-opacity="1"/>
<stop offset="0.609375" stop-color="rgb(89.804077%, 84.706116%, 70.980835%)" stop-opacity="1"/>
<stop offset="0.613281" stop-color="rgb(90.196228%, 85.098267%, 72.157288%)" stop-opacity="1"/>
<stop offset="0.617188" stop-color="rgb(90.98053%, 85.882568%, 72.941589%)" stop-opacity="1"/>
<stop offset="0.621094" stop-color="rgb(91.372681%, 86.274719%, 74.118042%)" stop-opacity="1"/>
<stop offset="0.625" stop-color="rgb(91.764832%, 87.059021%, 74.902344%)" stop-opacity="1"/>
<stop offset="0.628906" stop-color="rgb(92.156982%, 87.843323%, 76.078796%)" stop-opacity="1"/>
<stop offset="0.632812" stop-color="rgb(92.941284%, 88.235474%, 76.863098%)" stop-opacity="1"/>
<stop offset="0.636719" stop-color="rgb(93.333435%, 89.019775%, 78.039551%)" stop-opacity="1"/>
<stop offset="0.640625" stop-color="rgb(93.725586%, 89.411926%, 78.823853%)" stop-opacity="1"/>
<stop offset="0.644531" stop-color="rgb(94.117737%, 90.196228%, 80.000305%)" stop-opacity="1"/>
<stop offset="0.648437" stop-color="rgb(94.902039%, 90.588379%, 80.784607%)" stop-opacity="1"/>
<stop offset="0.652344" stop-color="rgb(95.294189%, 91.372681%, 81.96106%)" stop-opacity="1"/>
<stop offset="0.65625" stop-color="rgb(95.68634%, 92.156982%, 82.745361%)" stop-opacity="1"/>
<stop offset="0.660156" stop-color="rgb(95.68634%, 91.764832%, 82.745361%)" stop-opacity="1"/>
<stop offset="0.664062" stop-color="rgb(95.68634%, 91.764832%, 82.35321%)" stop-opacity="1"/>
<stop offset="0.667969" stop-color="rgb(95.294189%, 91.372681%, 81.568909%)" stop-opacity="1"/>
<stop offset="0.671875" stop-color="rgb(94.902039%, 90.98053%, 80.784607%)" stop-opacity="1"/>
<stop offset="0.675781" stop-color="rgb(94.509888%, 90.196228%, 80.000305%)" stop-opacity="1"/>
<stop offset="0.679688" stop-color="rgb(94.117737%, 89.804077%, 79.216003%)" stop-opacity="1"/>
<stop offset="0.683594" stop-color="rgb(93.725586%, 89.411926%, 78.431702%)" stop-opacity="1"/>
<stop offset="0.6875" stop-color="rgb(93.333435%, 88.627625%, 77.6474%)" stop-opacity="1"/>
<stop offset="0.691406" stop-color="rgb(92.941284%, 88.235474%, 76.863098%)" stop-opacity="1"/>
<stop offset="0.695312" stop-color="rgb(92.549133%, 87.843323%, 76.078796%)" stop-opacity="1"/>
<stop offset="0.699219" stop-color="rgb(92.156982%, 87.451172%, 75.294495%)" stop-opacity="1"/>
<stop offset="0.703125" stop-color="rgb(91.764832%, 86.66687%, 74.510193%)" stop-opacity="1"/>
<stop offset="0.707031" stop-color="rgb(91.372681%, 86.274719%, 73.725891%)" stop-opacity="1"/>
<stop offset="0.710937" stop-color="rgb(90.98053%, 85.882568%, 72.941589%)" stop-opacity="1"/>
<stop offset="0.714844" stop-color="rgb(90.588379%, 85.098267%, 72.157288%)" stop-opacity="1"/>
<stop offset="0.71875" stop-color="rgb(90.196228%, 84.706116%, 71.372986%)" stop-opacity="1"/>
<stop offset="0.722656" stop-color="rgb(89.804077%, 84.313965%, 70.588684%)" stop-opacity="1"/>
<stop offset="0.726562" stop-color="rgb(89.411926%, 83.921814%, 70.196533%)" stop-opacity="1"/>
<stop offset="0.730469" stop-color="rgb(89.019775%, 83.137512%, 69.412231%)" stop-opacity="1"/>
<stop offset="0.734375" stop-color="rgb(88.627625%, 82.745361%, 68.62793%)" stop-opacity="1"/>
<stop offset="0.738281" stop-color="rgb(88.235474%, 82.35321%, 67.843628%)" stop-opacity="1"/>
<stop offset="0.742187" stop-color="rgb(87.843323%, 81.96106%, 67.059326%)" stop-opacity="1"/>
<stop offset="0.746094" stop-color="rgb(87.451172%, 81.568909%, 66.275024%)" stop-opacity="1"/>
<stop offset="0.75" stop-color="rgb(87.059021%, 81.176758%, 65.490723%)" stop-opacity="1"/>
<stop offset="0.753906" stop-color="rgb(86.66687%, 80.392456%, 65.098572%)" stop-opacity="1"/>
<stop offset="0.757812" stop-color="rgb(86.274719%, 80.000305%, 64.31427%)" stop-opacity="1"/>
<stop offset="0.761719" stop-color="rgb(86.274719%, 79.608154%, 63.529968%)" stop-opacity="1"/>
<stop offset="0.765625" stop-color="rgb(85.882568%, 79.216003%, 62.745667%)" stop-opacity="1"/>
<stop offset="0.769531" stop-color="rgb(85.490417%, 78.823853%, 62.353516%)" stop-opacity="1"/>
<stop offset="0.773437" stop-color="rgb(85.098267%, 78.431702%, 61.569214%)" stop-opacity="1"/>
<stop offset="0.777344" stop-color="rgb(84.706116%, 78.039551%, 61.177063%)" stop-opacity="1"/>
<stop offset="0.78125" stop-color="rgb(84.313965%, 77.6474%, 60.784912%)" stop-opacity="1"/>
<stop offset="0.785156" stop-color="rgb(83.921814%, 77.255249%, 60.00061%)" stop-opacity="1"/>
<stop offset="0.789062" stop-color="rgb(83.529663%, 76.863098%, 59.608459%)" stop-opacity="1"/>
<stop offset="0.792969" stop-color="rgb(83.137512%, 76.078796%, 58.824158%)" stop-opacity="1"/>
<stop offset="0.796875" stop-color="rgb(82.745361%, 75.686646%, 58.432007%)" stop-opacity="1"/>
<stop offset="0.800781" stop-color="rgb(82.35321%, 75.294495%, 57.647705%)" stop-opacity="1"/>
<stop offset="0.804688" stop-color="rgb(81.96106%, 74.902344%, 57.255554%)" stop-opacity="1"/>
<stop offset="0.808594" stop-color="rgb(81.568909%, 74.510193%, 56.471252%)" stop-opacity="1"/>
<stop offset="0.8125" stop-color="rgb(81.176758%, 74.118042%, 56.079102%)" stop-opacity="1"/>
<stop offset="0.816406" stop-color="rgb(80.784607%, 73.33374%, 55.686951%)" stop-opacity="1"/>
<stop offset="0.820312" stop-color="rgb(80.392456%, 72.941589%, 54.902649%)" stop-opacity="1"/>
<stop offset="0.824219" stop-color="rgb(80.000305%, 72.549438%, 54.510498%)" stop-opacity="1"/>
<stop offset="0.828125" stop-color="rgb(79.608154%, 72.157288%, 53.726196%)" stop-opacity="1"/>
<stop offset="0.832031" stop-color="rgb(79.216003%, 71.765137%, 53.334045%)" stop-opacity="1"/>
<stop offset="0.835938" stop-color="rgb(78.823853%, 71.372986%, 52.549744%)" stop-opacity="1"/>
<stop offset="0.839844" stop-color="rgb(78.431702%, 70.588684%, 52.157593%)" stop-opacity="1"/>
<stop offset="0.84375" stop-color="rgb(78.039551%, 70.196533%, 51.373291%)" stop-opacity="1"/>
<stop offset="0.847656" stop-color="rgb(77.6474%, 69.804382%, 50.98114%)" stop-opacity="1"/>
<stop offset="0.851562" stop-color="rgb(77.255249%, 69.412231%, 50.588989%)" stop-opacity="1"/>
<stop offset="0.855469" stop-color="rgb(76.863098%, 69.020081%, 49.803162%)" stop-opacity="1"/>
<stop offset="0.859375" stop-color="rgb(76.470947%, 68.62793%, 49.411011%)" stop-opacity="1"/>
<stop offset="0.863281" stop-color="rgb(76.078796%, 67.843628%, 48.626709%)" stop-opacity="1"/>
<stop offset="0.867187" stop-color="rgb(75.686646%, 67.451477%, 48.234558%)" stop-opacity="1"/>
<stop offset="0.871094" stop-color="rgb(75.294495%, 67.059326%, 47.450256%)" stop-opacity="1"/>
<stop offset="0.875" stop-color="rgb(74.902344%, 66.667175%, 47.058105%)" stop-opacity="1"/>
<stop offset="0.878906" stop-color="rgb(74.510193%, 66.275024%, 46.665955%)" stop-opacity="1"/>
<stop offset="0.882812" stop-color="rgb(74.118042%, 65.882874%, 45.881653%)" stop-opacity="1"/>
<stop offset="0.886719" stop-color="rgb(73.33374%, 65.098572%, 45.489502%)" stop-opacity="1"/>
<stop offset="0.890625" stop-color="rgb(72.941589%, 64.706421%, 44.7052%)" stop-opacity="1"/>
<stop offset="0.894531" stop-color="rgb(72.549438%, 64.31427%, 44.313049%)" stop-opacity="1"/>
<stop offset="0.898438" stop-color="rgb(72.157288%, 63.922119%, 43.528748%)" stop-opacity="1"/>
<stop offset="0.902344" stop-color="rgb(71.765137%, 63.529968%, 43.136597%)" stop-opacity="1"/>
<stop offset="0.90625" stop-color="rgb(71.372986%, 63.137817%, 42.352295%)" stop-opacity="1"/>
<stop offset="0.910156" stop-color="rgb(70.980835%, 62.745667%, 41.960144%)" stop-opacity="1"/>
<stop offset="0.914063" stop-color="rgb(70.588684%, 61.961365%, 41.567993%)" stop-opacity="1"/>
<stop offset="0.917969" stop-color="rgb(70.196533%, 61.569214%, 40.783691%)" stop-opacity="1"/>
<stop offset="0.921875" stop-color="rgb(69.804382%, 61.177063%, 40.391541%)" stop-opacity="1"/>
<stop offset="0.925781" stop-color="rgb(69.412231%, 60.784912%, 39.607239%)" stop-opacity="1"/>
<stop offset="0.929688" stop-color="rgb(69.020081%, 60.392761%, 39.215088%)" stop-opacity="1"/>
<stop offset="0.933594" stop-color="rgb(68.62793%, 60.00061%, 38.430786%)" stop-opacity="1"/>
<stop offset="0.9375" stop-color="rgb(68.235779%, 59.216309%, 38.038635%)" stop-opacity="1"/>
<stop offset="0.941406" stop-color="rgb(68.235779%, 59.216309%, 37.646484%)" stop-opacity="1"/>
<stop offset="0.945312" stop-color="rgb(67.843628%, 58.824158%, 37.254333%)" stop-opacity="1"/>
<stop offset="0.953125" stop-color="rgb(67.843628%, 58.824158%, 37.254333%)" stop-opacity="1"/>
<stop offset="0.96875" stop-color="rgb(67.843628%, 58.824158%, 37.254333%)" stop-opacity="1"/>
<stop offset="1" stop-color="rgb(67.843628%, 58.824158%, 37.254333%)" stop-opacity="1"/>
</linearGradient>
</defs>
<g clip-path="url(#clip-0)">
<g clip-path="url(#clip-1)">
<path fill-rule="nonzero" fill="url(#linear-pattern-0)" d="M 167.253906 326.046875 L 167.253906 161.191406 L 319.746094 161.191406 L 319.746094 326.046875 Z M 167.253906 326.046875 "/>
</g>
</g>
<path fill-rule="nonzero" fill="rgb(12.548828%, 16.470337%, 26.66626%)" fill-opacity="1" d="M 94.058594 222.890625 C 93.570312 226.953125 94.851562 229.976562 97.398438 231.71875 L 97.382812 231.851562 C 96.054688 231.714844 94.726562 231.578125 93.425781 231.425781 L 93.25 232.882812 L 101.804688 233.90625 L 102.90625 224.722656 L 101.511719 224.554688 C 101.234375 226.890625 100.90625 229.628906 100.625 231.988281 C 97.222656 231.285156 94.988281 227.875 95.53125 223.339844 C 96.050781 218.984375 98.988281 214.800781 104.132812 215.414062 C 108.980469 215.996094 111.351562 220.378906 110.800781 224.960938 C 110.40625 228.285156 108.519531 231.109375 105.691406 232.09375 L 106.085938 233.734375 C 109.683594 232.796875 111.84375 229.003906 112.308594 225.117188 C 113.007812 219.277344 109.878906 214.210938 104.375 213.554688 C 99.054688 212.917969 94.78125 216.828125 94.058594 222.890625 Z M 93.144531 250.460938 L 94.171875 263.96875 L 95.707031 263.851562 C 95.445312 260.445312 95.1875 257.042969 94.8125 252.125 C 97.066406 251.953125 99.300781 251.78125 101.554688 251.613281 C 101.886719 255.964844 102.136719 259.234375 102.386719 262.527344 L 103.898438 262.410156 C 103.65625 259.207031 103.414062 256.027344 103.066406 251.496094 C 105.1875 251.335938 107.285156 251.175781 109.402344 251.011719 C 109.765625 255.773438 110.019531 259.109375 110.277344 262.46875 L 111.742188 262.359375 L 110.734375 249.121094 Z M 98.914062 286.730469 C 99.933594 290.390625 102.757812 293.101562 105.808594 292.25 C 108.902344 291.386719 108.660156 287.835938 108.628906 285.355469 L 108.617188 283.222656 C 108.605469 281.910156 108.53125 278.527344 110.773438 277.902344 C 112.605469 277.390625 114.347656 279.183594 115.046875 281.6875 C 115.789062 284.34375 115.070312 286.660156 113.34375 287.960938 L 114.335938 289.328125 C 116.695312 287.683594 117.410156 284.597656 116.539062 281.480469 C 115.640625 278.257812 113.199219 275.324219 110.171875 276.167969 C 106.96875 277.0625 106.957031 281.054688 106.992188 283.113281 L 107.023438 285.171875 C 107.0625 287.320312 107.300781 289.859375 105.078125 290.480469 C 102.726562 291.136719 101.007812 288.679688 100.363281 286.371094 C 99.589844 283.605469 100.28125 280.78125 102.742188 279.15625 L 101.78125 277.734375 C 98.410156 279.964844 98.09375 283.789062 98.914062 286.730469 Z M 124.460938 305.917969 L 124.460938 305.917969 M 124.460938 305.917969 L 109.980469 313.117188 L 110.753906 314.675781 L 125.234375 307.476562 C 126.324219 309.664062 127.410156 311.851562 128.496094 314.039062 L 129.8125 313.386719 L 122.515625 298.703125 L 121.199219 299.355469 C 122.285156 301.542969 123.375 303.730469 124.460938 305.917969 Z M 120.28125 330.355469 L 121.445312 331.828125 C 123.710938 331.339844 125.90625 330.875 128.171875 330.386719 C 130.089844 332.820312 132.003906 335.253906 133.921875 337.6875 C 132.933594 339.792969 131.980469 341.839844 130.992188 343.945312 L 132.140625 345.402344 L 140.664062 327.714844 L 139.472656 326.203125 Z M 129.777344 330.015625 C 133.28125 329.238281 136.917969 328.476562 138.589844 328.078125 L 138.632812 328.132812 C 137.359375 330.574219 135.972656 333.453125 134.648438 336.195312 C 133.023438 334.136719 131.414062 332.09375 129.777344 330.015625 Z M 142.617188 327.527344 C 143.652344 328.839844 145.109375 328.933594 146.441406 327.882812 L 145.640625 326.871094 C 144.929688 327.429688 144.105469 327.476562 143.574219 326.800781 C 143.195312 326.324219 143.121094 325.71875 143.109375 325.265625 L 143.082031 324.570312 C 143.035156 323.855469 142.96875 323.21875 142.449219 322.5625 C 141.46875 321.320312 139.898438 321.117188 138.585938 322.121094 L 139.371094 323.117188 C 140.0625 322.570312 140.960938 322.613281 141.492188 323.285156 C 141.828125 323.714844 141.859375 324.152344 141.875 324.683594 L 141.898438 325.300781 C 141.941406 326.011719 141.917969 326.636719 142.617188 327.527344 Z M 150.316406 362.226562 C 154.953125 365.878906 161.117188 365.695312 164.351562 361.59375 C 167.542969 357.542969 166.40625 351.492188 161.714844 347.796875 C 157.113281 344.171875 150.957031 344.273438 147.667969 348.449219 C 144.378906 352.625 145.769531 358.644531 150.316406 362.226562 Z M 151.289062 361.0625 C 147.613281 358.167969 146.402344 353.125 149.160156 349.625 C 151.917969 346.125 157.117188 346.105469 160.796875 349.003906 C 164.457031 351.886719 165.582031 356.921875 162.839844 360.402344 C 160.097656 363.886719 154.933594 363.933594 151.289062 361.0625 Z M 186.746094 383.378906 L 199.644531 387.519531 L 200.117188 386.058594 C 196.863281 385.011719 193.613281 383.96875 188.917969 382.460938 C 189.609375 380.308594 190.296875 378.175781 190.988281 376.023438 C 195.144531 377.355469 198.265625 378.359375 201.410156 379.371094 L 201.871094 377.925781 C 198.816406 376.945312 195.777344 375.96875 191.449219 374.578125 C 192.101562 372.554688 192.742188 370.550781 193.394531 368.527344 C 197.9375 369.988281 201.125 371.011719 204.332031 372.042969 L 204.78125 370.640625 L 192.140625 366.582031 Z M 216.238281 391.753906 L 218.011719 391.988281 C 218.636719 387.210938 219.265625 382.410156 219.890625 377.636719 L 219.980469 377.648438 C 222 382.769531 224.019531 387.914062 226.039062 393.039062 L 227.742188 393.261719 C 231.015625 388.832031 234.289062 384.382812 237.5625 379.953125 L 237.675781 379.964844 C 237.050781 384.742188 236.417969 389.542969 235.792969 394.316406 L 237.566406 394.550781 L 239.859375 377.058594 L 237.726562 376.78125 C 234.210938 381.519531 230.714844 386.238281 227.222656 390.960938 L 227.179688 390.953125 C 225 385.46875 222.839844 380.027344 220.664062 374.542969 L 218.53125 374.261719 Z M 256.210938 393.671875 L 257.980469 393.441406 C 257.648438 390.90625 257.40625 389.046875 257.070312 386.488281 C 258.574219 386.292969 260.816406 386 263.058594 385.703125 C 266.421875 385.265625 269.234375 383.070312 268.769531 379.503906 C 268.332031 376.164062 265.195312 374.703125 261.226562 375.222656 L 253.917969 376.183594 Z M 256.871094 384.988281 C 256.542969 382.476562 256.183594 379.71875 255.878906 377.40625 C 257.269531 377.226562 259.132812 376.980469 261.105469 376.722656 C 264.242188 376.3125 266.617188 377.367188 266.941406 379.835938 C 267.265625 382.300781 265.460938 383.859375 262.300781 384.277344 C 260.257812 384.542969 258.351562 384.792969 256.871094 384.988281 Z M 286.566406 387.972656 L 288.25 387.375 C 287.457031 385.136719 286.6875 382.964844 285.902344 380.746094 C 287.457031 380.195312 289.054688 379.628906 290.632812 379.070312 L 298.355469 383.796875 L 300.210938 383.136719 C 297.65625 381.546875 295.007812 379.96875 292.453125 378.378906 L 292.445312 378.355469 C 295.425781 377.011719 296.917969 374.394531 295.898438 371.515625 C 294.765625 368.320312 291.355469 367.5625 287.625 368.882812 L 280.675781 371.347656 Z M 285.417969 379.382812 C 284.496094 376.78125 283.75 374.671875 282.847656 372.136719 C 284.277344 371.628906 286.003906 371.015625 287.816406 370.375 C 290.800781 369.316406 293.359375 369.898438 294.183594 372.222656 C 295.011719 374.566406 293.582031 376.488281 290.578125 377.554688 C 288.722656 378.210938 286.953125 378.839844 285.417969 379.382812 Z M 315.636719 375.714844 L 327.40625 369 L 326.640625 367.664062 C 323.675781 369.355469 320.710938 371.046875 316.425781 373.492188 C 315.308594 371.527344 314.195312 369.582031 313.078125 367.617188 C 316.867188 365.457031 319.714844 363.828125 322.585938 362.195312 L 321.832031 360.878906 C 319.042969 362.46875 316.273438 364.050781 312.324219 366.300781 C 311.273438 364.457031 310.230469 362.628906 309.175781 360.78125 C 313.320312 358.417969 316.226562 356.757812 319.15625 355.089844 L 318.425781 353.8125 L 306.894531 360.390625 Z M 345.683594 354.582031 C 348.445312 351.972656 349.53125 348.214844 347.359375 345.910156 C 345.152344 343.574219 342.125 345.4375 339.945312 346.625 L 338.058594 347.625 C 336.90625 348.25 333.945312 349.890625 332.347656 348.195312 C 331.042969 346.816406 331.816406 344.4375 333.707031 342.652344 C 335.714844 340.757812 338.097656 340.316406 340.054688 341.234375 L 340.800781 339.722656 C 338.246094 338.398438 335.183594 339.207031 332.832031 341.425781 C 330.398438 343.722656 328.9375 347.25 331.09375 349.535156 C 333.375 351.953125 336.917969 350.105469 338.722656 349.117188 L 340.527344 348.128906 C 342.410156 347.09375 344.546875 345.703125 346.132812 347.378906 C 347.808594 349.15625 346.433594 351.820312 344.691406 353.464844 C 342.601562 355.4375 339.78125 356.140625 337.199219 354.71875 L 336.386719 356.234375 C 339.929688 358.175781 343.460938 356.675781 345.683594 354.582031 Z M 360.257812 338.859375 L 361.359375 337.339844 C 360.273438 335.292969 359.226562 333.308594 358.136719 331.261719 C 359.957031 328.753906 361.773438 326.242188 363.589844 323.734375 C 365.886719 324.113281 368.113281 324.46875 370.40625 324.847656 L 371.496094 323.34375 L 352.152344 319.976562 L 351.027344 321.53125 Z M 357.339844 329.820312 C 355.636719 326.660156 353.910156 323.371094 353.070312 321.871094 L 353.113281 321.816406 C 355.808594 322.371094 358.957031 322.921875 361.957031 323.445312 C 360.417969 325.570312 358.890625 327.675781 357.339844 329.820312 Z M 379.0625 309.109375 L 379.789062 307.476562 C 377.621094 306.507812 375.515625 305.570312 373.367188 304.609375 C 374.039062 303.101562 374.730469 301.554688 375.414062 300.027344 L 384.160156 297.691406 L 384.964844 295.894531 C 382.050781 296.648438 379.078125 297.476562 376.164062 298.230469 L 376.144531 298.222656 C 377.226562 295.136719 376.359375 292.25 373.574219 291.003906 C 370.472656 289.621094 367.574219 291.570312 365.960938 295.183594 L 362.953125 301.917969 Z M 372.046875 304.019531 C 369.527344 302.894531 367.480469 301.980469 365.023438 300.882812 C 365.640625 299.5 366.390625 297.828125 367.171875 296.074219 C 368.464844 293.179688 370.648438 291.730469 372.898438 292.734375 C 375.171875 293.75 375.578125 296.109375 374.277344 299.023438 C 373.476562 300.820312 372.710938 302.53125 372.046875 304.019531 Z M 389.648438 279.402344 L 390.054688 277.664062 L 372.875 273.652344 L 372.46875 275.390625 Z M 392.988281 261.835938 L 393.128906 259.964844 C 391.132812 258.789062 389.203125 257.644531 387.203125 256.472656 C 387.4375 253.382812 387.675781 250.292969 387.910156 247.203125 C 390.0625 246.324219 392.148438 245.460938 394.300781 244.582031 L 394.441406 242.734375 L 376.199219 249.984375 L 376.050781 251.902344 Z M 385.769531 255.660156 C 382.664062 253.859375 379.472656 251.960938 377.972656 251.121094 L 377.976562 251.050781 C 380.566406 250.113281 383.535156 248.933594 386.367188 247.8125 C 386.167969 250.429688 385.96875 253.023438 385.769531 255.660156 Z M 393.003906 226.648438 L 391.492188 214.007812 L 389.964844 214.191406 C 390.394531 217.804688 390.832031 221.441406 391.261719 225.058594 C 385.941406 225.695312 380.597656 226.335938 375.273438 226.96875 L 375.484375 228.746094 Z M 393.003906 226.648438 "/>
<path fill-rule="nonzero" fill="rgb(12.548828%, 16.470337%, 26.66626%)" fill-opacity="1" d="M 147.4375 152.988281 L 153.8125 146.988281 C 156.183594 144.757812 158.175781 141.296875 155.660156 138.628906 C 153.988281 136.851562 151.839844 137.042969 149.683594 138.480469 L 149.652344 138.449219 C 150.976562 136.425781 150.621094 134.367188 149.460938 133.132812 C 147.675781 131.238281 144.632812 131.402344 141.570312 134.285156 L 135.34375 140.144531 Z M 147.882812 148.316406 C 146.890625 147.261719 145.882812 146.191406 144.890625 145.136719 C 145.894531 144.191406 147.128906 143.027344 148.132812 142.082031 C 149.550781 140.75 151.457031 139.636719 152.617188 140.875 C 153.796875 142.125 152.574219 143.894531 151.125 145.261719 C 150.089844 146.238281 148.902344 147.355469 147.882812 148.316406 Z M 142.90625 143.03125 C 141.960938 142.023438 140.984375 140.988281 140.039062 139.984375 C 140.925781 139.144531 142.03125 138.109375 142.917969 137.269531 C 144.320312 135.953125 146.09375 134.933594 147.210938 136.117188 C 148.324219 137.304688 147.269531 138.921875 145.820312 140.285156 C 144.898438 141.152344 143.796875 142.191406 142.90625 143.03125 Z M 166.179688 136.535156 L 169.265625 134.601562 C 169.09375 132.921875 168.902344 131.171875 168.730469 129.492188 C 171.125 127.988281 173.539062 126.476562 175.9375 124.972656 C 177.417969 125.886719 178.867188 126.792969 180.304688 127.679688 L 183.464844 125.699219 L 167.175781 115.089844 L 163.726562 117.253906 Z M 168.304688 125.914062 C 168.058594 123.695312 167.789062 121.433594 167.542969 119.636719 L 167.601562 119.601562 C 169.308594 120.746094 171.140625 121.921875 172.902344 123.03125 C 171.371094 123.992188 169.835938 124.953125 168.304688 125.914062 Z M 190.203125 107.164062 L 190.203125 107.164062 M 190.203125 107.164062 L 195.46875 120.71875 L 198.714844 119.457031 L 193.449219 105.902344 C 195.492188 105.109375 197.539062 104.3125 199.582031 103.519531 L 198.460938 100.632812 L 182.945312 106.65625 L 184.066406 109.546875 C 186.113281 108.753906 188.15625 107.957031 190.203125 107.164062 Z M 215.546875 114.523438 L 219.027344 113.949219 L 216.15625 96.542969 L 212.671875 97.121094 Z M 238.605469 112.179688 C 243.128906 112.125 246.199219 109.640625 246.160156 106.453125 C 246.117188 103.105469 242.714844 102.289062 240.671875 101.773438 L 238.496094 101.210938 C 237.042969 100.84375 234.589844 100.242188 234.574219 98.769531 C 234.558594 97.683594 235.996094 96.875 237.964844 96.851562 C 240.023438 96.824219 241.457031 97.667969 242.15625 99.105469 L 245.351562 97.824219 C 244.578125 95.660156 241.886719 93.75 238.039062 93.796875 C 234.128906 93.84375 230.875 95.898438 230.914062 99.085938 C 230.953125 102.457031 234.65625 103.585938 236.652344 104.058594 L 238.582031 104.511719 C 240.328125 104.941406 242.414062 105.390625 242.433594 106.90625 C 242.449219 108.332031 240.515625 109.101562 238.523438 109.125 C 236.464844 109.152344 234.421875 108.453125 233.53125 105.953125 L 230.265625 107.058594 C 231.371094 110.414062 234.71875 112.226562 238.605469 112.179688 Z M 263.816406 98.59375 L 263.816406 98.59375 M 263.816406 98.59375 L 261.800781 113 L 265.25 113.480469 L 267.265625 99.078125 C 269.4375 99.382812 271.609375 99.6875 273.785156 99.988281 L 274.210938 96.921875 L 257.726562 94.617188 L 257.296875 97.683594 C 259.46875 97.988281 261.644531 98.292969 263.816406 98.59375 Z M 282.324219 117.457031 L 295.527344 122.039062 L 296.550781 119.089844 C 293.753906 118.121094 290.953125 117.148438 286.679688 115.667969 C 287.140625 114.339844 287.601562 113.015625 288.058594 111.691406 C 291.285156 112.8125 294.214844 113.828125 297.160156 114.851562 L 298.230469 111.773438 C 295.601562 110.859375 292.996094 109.957031 289.125 108.613281 C 289.558594 107.375 289.996094 106.113281 290.425781 104.875 C 294.464844 106.277344 297.261719 107.246094 300.039062 108.210938 L 301.054688 105.285156 L 288.105469 100.792969 Z M 306.109375 127.566406 L 317.589844 134.101562 L 319.132812 131.390625 C 316.324219 129.789062 313.53125 128.199219 310.722656 126.601562 C 313.117188 122.394531 315.511719 118.1875 317.90625 113.980469 L 314.839844 112.234375 Z M 324.976562 139.25 L 327.628906 141.746094 C 329.210938 141.15625 330.855469 140.53125 332.4375 139.941406 C 334.496094 141.882812 336.566406 143.835938 338.625 145.777344 C 338.113281 147.441406 337.601562 149.070312 337.105469 150.6875 L 339.820312 153.246094 L 345.984375 134.8125 L 343.023438 132.015625 Z M 335.792969 138.628906 C 337.878906 137.832031 340 137 341.675781 136.3125 L 341.726562 136.359375 C 341.046875 138.300781 340.371094 140.367188 339.742188 142.351562 C 338.425781 141.113281 337.109375 139.871094 335.792969 138.628906 "/>
<path fill-rule="evenodd" fill="rgb(12.548828%, 16.470337%, 26.66626%)" fill-opacity="1" d="M 117.519531 179.507812 C 118.785156 179.507812 119.808594 180.535156 119.808594 181.796875 C 119.808594 183.0625 118.785156 184.089844 117.519531 184.089844 C 116.253906 184.089844 115.230469 183.0625 115.230469 181.796875 C 115.230469 180.535156 116.253906 179.507812 117.519531 179.507812 "/>
<path fill-rule="evenodd" fill="rgb(12.548828%, 16.470337%, 26.66626%)" fill-opacity="1" d="M 369.417969 179.507812 C 370.683594 179.507812 371.707031 180.535156 371.707031 181.796875 C 371.707031 183.0625 370.683594 184.089844 369.417969 184.089844 C 368.152344 184.089844 367.128906 183.0625 367.128906 181.796875 C 367.128906 180.535156 368.152344 179.507812 369.417969 179.507812 "/>
</svg>
